<svg id="visual" viewBox="0 0 900 600" width="900" height="600" xmlns="http://www.w3.org/2000/svg" xmlns:xlink="http://www.w3.org/1999/xlink" version="1.1"><path d="M0 139L18.8 137C37.7 135 75.3 131 112.8 140C150.3 149 187.7 171 225.2 176C262.7 181 300.3 169 337.8 174C375.3 179 412.7 201 450.2 209C487.7 217 525.3 211 562.8 201C600.3 191 637.7 177 675.2 165C712.7 153 750.3 143 787.8 150C825.3 157 862.7 181 881.3 193L900 205L900 0L881.3 0C862.7 0 825.3 0 787.8 0C750.3 0 712.7 0 675.2 0C637.7 0 600.3 0 562.8 0C525.3 0 487.7 0 450.2 0C412.7 0 375.3 0 337.8 0C300.3 0 262.7 0 225.2 0C187.7 0 150.3 0 112.8 0C75.3 0 37.7 0 18.8 0L0 0Z" fill="#ffffff"></path><path d="M0 337L18.8 338C37.7 339 75.3 341 112.8 337C150.3 333 187.7 323 225.2 332C262.7 341 300.3 369 337.8 379C375.3 389 412.7 381 450.2 376C487.7 371 525.3 369 562.8 362C600.3 355 637.7 343 675.2 340C712.7 337 750.3 343 787.8 355C825.3 367 862.7 385 881.3 394L900 403L900 203L881.3 191C862.7 179 825.3 155 787.8 148C750.3 141 712.7 151 675.2 163C637.7 175 600.3 189 562.8 199C525.3 209 487.7 215 450.2 207C412.7 199 375.3 177 337.8 172C300.3 167 262.7 179 225.2 174C187.7 169 150.3 147 112.8 138C75.3 129 37.7 133 18.8 135L0 137Z" fill="#def7ff"></path><path d="M0 409L18.8 412C37.7 415 75.3 421 112.8 418C150.3 415 187.7 403 225.2 410C262.7 417 300.3 443 337.8 457C375.3 471 412.7 473 450.2 467C487.7 461 525.3 447 562.8 433C600.3 419 637.7 405 675.2 404C712.7 403 750.3 415 787.8 427C825.3 439 862.7 451 881.3 457L900 463L900 401L881.3 392C862.7 383 825.3 365 787.8 353C750.3 341 712.7 335 675.2 338C637.7 341 600.3 353 562.8 360C525.3 367 487.7 369 450.2 374C412.7 379 375.3 387 337.8 377C300.3 367 262.7 339 225.2 330C187.7 321 150.3 331 112.8 335C75.3 339 37.7 337 18.8 336L0 335Z" fill="#baeeff"></path><path d="M0 493L18.8 494C37.7 495 75.3 497 112.8 492C150.3 487 187.7 475 225.2 479C262.7 483 300.3 503 337.8 514C375.3 525 412.7 527 450.2 527C487.7 527 525.3 525 562.8 515C600.3 505 637.7 487 675.2 481C712.7 475 750.3 481 787.8 488C825.3 495 862.7 503 881.3 507L900 511L900 461L881.3 455C862.7 449 825.3 437 787.8 425C750.3 413 712.7 401 675.2 402C637.7 403 600.3 417 562.8 431C525.3 445 487.7 459 450.2 465C412.7 471 375.3 469 337.8 455C300.3 441 262.7 415 225.2 408C187.7 401 150.3 413 112.8 416C75.3 419 37.7 413 18.8 410L0 407Z" fill="#91e5ff"></path><path d="M0 601L18.8 601C37.7 601 75.3 601 112.8 601C150.3 601 187.7 601 225.2 601C262.7 601 300.3 601 337.8 601C375.3 601 412.7 601 450.2 601C487.7 601 525.3 601 562.8 601C600.3 601 637.7 601 675.2 601C712.7 601 750.3 601 787.8 601C825.3 601 862.7 601 881.3 601L900 601L900 509L881.3 505C862.7 501 825.3 493 787.8 486C750.3 479 712.7 473 675.2 479C637.7 485 600.3 503 562.8 513C525.3 523 487.7 525 450.2 525C412.7 525 375.3 523 337.8 512C300.3 501 262.7 481 225.2 477C187.7 473 150.3 485 112.8 490C75.3 495 37.7 493 18.8 492L0 491Z" fill="#5cdcff"></path></svg>