<svg id="visual" viewBox="0 0 900 600" width="900" height="600" xmlns="http://www.w3.org/2000/svg" xmlns:xlink="http://www.w3.org/1999/xlink" version="1.1"><g><g transform="translate(96 266)"><path d="M0 -19.4L16.8 -9.7L16.8 9.7L0 19.4L-16.8 9.7L-16.8 -9.7Z" fill="#88BADB"></path></g><g transform="translate(857 535)"><path d="M0 -14L12.1 -7L12.1 7L0 14L-12.1 7L-12.1 -7Z" fill="#88BADB"></path></g><g transform="translate(136 157)"><path d="M0 -16L13.9 -8L13.9 8L0 16L-13.9 8L-13.9 -8Z" fill="#88BADB"></path></g><g transform="translate(704 299)"><path d="M0 -18L15.6 -9L15.6 9L0 18L-15.6 9L-15.6 -9Z" fill="#88BADB"></path></g><g transform="translate(810 313)"><path d="M0 -14L12.1 -7L12.1 7L0 14L-12.1 7L-12.1 -7Z" fill="#88BADB"></path></g><g transform="translate(43 202)"><path d="M0 -17L14.7 -8.5L14.7 8.5L0 17L-14.7 8.5L-14.7 -8.5Z" fill="#88BADB"></path></g><g transform="translate(857 420)"><path d="M0 -15L13 -7.5L13 7.5L0 15L-13 7.5L-13 -7.5Z" fill="#88BADB"></path></g><g transform="translate(877 207)"><path d="M0 -14L12.1 -7L12.1 7L0 14L-12.1 7L-12.1 -7Z" fill="#88BADB"></path></g><g transform="translate(394 61)"><path d="M0 -15L13 -7.5L13 7.5L0 15L-13 7.5L-13 -7.5Z" fill="#88BADB"></path></g><g transform="translate(54 532)"><path d="M0 -17L14.7 -8.5L14.7 8.5L0 17L-14.7 8.5L-14.7 -8.5Z" fill="#88BADB"></path></g><g transform="translate(297 329)"><path d="M0 -15L13 -7.5L13 7.5L0 15L-13 7.5L-13 -7.5Z" fill="#88BADB"></path></g><g transform="translate(107 576)"><path d="M0 -14L12.1 -7L12.1 7L0 14L-12.1 7L-12.1 -7Z" fill="#88BADB"></path></g><g transform="translate(543 531)"><path d="M0 -18L15.6 -9L15.6 9L0 18L-15.6 9L-15.6 -9Z" fill="#88BADB"></path></g><g transform="translate(425 113)"><path d="M0 -14L12.1 -7L12.1 7L0 14L-12.1 7L-12.1 -7Z" fill="#88BADB"></path></g><g transform="translate(537 475)"><path d="M0 -18L15.6 -9L15.6 9L0 18L-15.6 9L-15.6 -9Z" fill="#88BADB"></path></g><g transform="translate(363 216)"><path d="M0 -18L15.6 -9L15.6 9L0 18L-15.6 9L-15.6 -9Z" fill="#88BADB"></path></g></g></svg>
