<svg id="visual" viewBox="0 0 900 450" width="900" height="450" xmlns="http://www.w3.org/2000/svg" xmlns:xlink="http://www.w3.org/1999/xlink" version="1.1"><path d="M0 209L11.5 214.8C23 220.7 46 232.3 69 231.8C92 231.3 115 218.7 138.2 215.5C161.3 212.3 184.7 218.7 207.8 218C231 217.3 254 209.7 277 209.8C300 210 323 218 346 218.7C369 219.3 392 212.7 415.2 215.8C438.3 219 461.7 232 484.8 232.5C508 233 531 221 554 216.7C577 212.3 600 215.7 623 221.3C646 227 669 235 692.2 232.7C715.3 230.3 738.7 217.7 761.8 212.7C785 207.7 808 210.3 831 210.5C854 210.7 877 208.3 888.5 207.2L900 206L900 451L888.5 451C877 451 854 451 831 451C808 451 785 451 761.8 451C738.7 451 715.3 451 692.2 451C669 451 646 451 623 451C600 451 577 451 554 451C531 451 508 451 484.8 451C461.7 451 438.3 451 415.2 451C392 451 369 451 346 451C323 451 300 451 277 451C254 451 231 451 207.8 451C184.7 451 161.3 451 138.2 451C115 451 92 451 69 451C46 451 23 451 11.5 451L0 451Z" fill="#88BADB" stroke-linecap="round" stroke-linejoin="miter"></path></svg>
